<svg id="OBJECTS" xmlns="http://www.w3.org/2000/svg" viewBox="0 0 402.44 197.13"><defs><style>.cls-1{fill:#ccd7f3;}.cls-2{fill:#cdb299;}.cls-3{fill:#bea38d;}.cls-4{fill:#92806d;}.cls-5{fill:#656fcb;}.cls-6{fill:#fd4d0a;}.cls-7{fill:#cac8b4;}.cls-8{fill:#33479d;}.cls-9{fill:#cc3b30;}.cls-10{fill:#95806d;}.cls-11{fill:#f7f7e0;}.cls-12{fill:#f6f7e0;}.cls-13{fill:#cdb098;}.cls-14{fill:#ad9680;}</style></defs><ellipse class="cls-1" cx="201.22" cy="179.64" rx="201.22" ry="17.5"/><path class="cls-2" d="M426,380.15c-.27-.92-.53-1.84-.8-2.76-1.23.55-2.48.23-3.72.09l1.28,0a2.94,2.94,0,0,0,2.31-.49,48.72,48.72,0,0,1-2.63-5.88c-1-3.4-4.21-5.32-5.5-8.55-.78-2-1.65-4-3.45-5.36a4.94,4.94,0,0,0-2.67-1c-11.15-1.22-22.16-3.35-33.2-5.3-6.09-1-12.12-2.41-18.18-3.58-12.22-2.36-24.5-4.1-37-4.13-2.93.05-5.86,0-8.79,0a59.9,59.9,0,0,0-9.54,1c-14.17,2-27.34,6.49-38.42,15.9-2.79,2.38-5.83,4.65-7.36,8.21,0,.81.61,1.17,1.21,1.46,4.93,2.44,8.31,6.38,10.88,11.12.46.85.88,1.75,2,2a10.8,10.8,0,0,0,4.52-.38c11.67-3,23.6-4,35.59-4.31a211.35,211.35,0,0,1,25.38,1.43q16.2,1.61,32.41,3c1.86,0,3.69.46,5.56.46q23.82,0,47.64,0c1,0,2.11.11,3-.73Z" transform="translate(-45.6 -210.36)"/><path class="cls-2" d="M229.93,345.36c-9.28-4.42-19.32-5.48-29.37-6.06a146.07,146.07,0,0,0-27.86,1.52C156.27,343,140.2,347,124,350.39q-15.68,3.23-31.46,5.73a9.7,9.7,0,0,0-4,1.14c-1.21,1-1.58,2.48-2.32,3.75-1.17,2-1.87,4.57-3.57,5.81-1.9,1.4-2.51,3.07-3.2,5-1,2.65-2,5.28-3,7.91.61.59,1.39.41,2.12.43l.89,0H77.87a2.58,2.58,0,0,0-1.9.45l-.45,1.76c1,1,2.37.74,3.6.73,12.33-.11,24.67.39,37-.45,6.81-.55,13.63-.89,20.45-1.31,7.2-.44,14.39-1,21.59-1.55,9.94-.72,19.89-1.3,29.85-1.62,6.18-.2,12.33.43,18.5.85a82.61,82.61,0,0,1,19.74,3.44,5.31,5.31,0,0,0,2.27.19c1-.45,1.3-1.41,1.74-2.26C234,373.18,239.87,369,248,368.14c1.14-.12,2.42,0,3.16-1.25a6.17,6.17,0,0,0-1-2.93A44.1,44.1,0,0,0,229.93,345.36Z" transform="translate(-45.6 -210.36)"/><path class="cls-3" d="M329.78,289.73a167.79,167.79,0,0,1,20.53-12.08c6.08-3.11,12.28-6,18.42-9l7.16-2.7c-1.42,5.1-2.76,9.86-4.07,14.62-.45,1.62-2,1.24-3,1.42q-10.65,1.86-21.17,4.36a171.52,171.52,0,0,0-17.76,5.14A3.23,3.23,0,0,1,328,292C327.78,290.56,329.46,290.69,329.78,289.73Z" transform="translate(-45.6 -210.36)"/><path class="cls-4" d="M329.78,289.73c.12,1.32-1.67,1.1-1.8,2.22a8.79,8.79,0,0,1-3.13,1.38C326.14,291.64,328.08,290.84,329.78,289.73Z" transform="translate(-45.6 -210.36)"/><path class="cls-5" d="M272,382.51a18.89,18.89,0,0,0,4.55-.5c26.18-.8,52.37-.15,78.56-.34q5.91,0,11.81.47A8.31,8.31,0,0,0,370,382c17.54.86,35.1.22,52.65.41,1.26,0,2.52,0,3.79-.05,2.44.34,3.64,1.43,3.5,3.2s-1.44,2.68-3.92,2.69q-73.14,0-146.26,0c-.94,0-2-.34-2.79.41a14.32,14.32,0,0,1-5.1-.05c-1.36-.26-2.62-.78-2.48-2.56.14-.47.37-.82.92-.54,1.81.93,1.88,0,1.55-1.41C271.75,383.58,271.51,383,272,382.51Z" transform="translate(-45.6 -210.36)"/><path class="cls-5" d="M75.52,382.37c12.33-.06,24.67.48,37-.34,1.26-.08,2.53,0,3.79,0,3.49.46,7-.07,10.46-.14,3.19-.06,6.4-.18,9.59-.18,28.24,0,56.48,0,84.73-.06,1.93,0,3.81.57,5.74.35l1.69.49c.39.46.16,1,.08,1.45s-.48,1.42.29,1.74,1-.56,1.34-1.08.53-1.61,1.66-1.33a2.51,2.51,0,0,1,1.05,3.1,3.46,3.46,0,0,1-3.14,2.43c-2.2.21-4.44-.13-6.61.44-.52-1.35-1.69-.93-2.66-.93H76.19c-1.19,0-2.4.08-3.29-1a2.78,2.78,0,0,1-.55-2.92C72.88,382.89,74.1,382.47,75.52,382.37Z" transform="translate(-45.6 -210.36)"/><path class="cls-6" d="M257.7,368.45l.91.17c6.35,2.82,10.35,7.89,13.4,13.89a10.11,10.11,0,0,0,.39,1.46c.39.94.61,1.91-.37,2.55-1.19.78-1.63-.38-2.21-1.07-2.35-7-6.42-12.65-13.8-14.59-10.26-2.7-20.54,1.88-24.65,12.41-.31.74-.61,1.49-.94,2.22s-.82,1.52-1.81,1.1a1.54,1.54,0,0,1-.79-2c.21-.71.45-1.4.68-2.09,2.52-5.48,6-10.06,11.61-12.77a27.9,27.9,0,0,1,10.78-2.42c.55.58,1.23.29,1.86.28l2.76.22Z" transform="translate(-45.6 -210.36)"/><path class="cls-7" d="M313.22,343.87a21.6,21.6,0,0,1,9.4,0Z" transform="translate(-45.6 -210.36)"/><path class="cls-6" d="M199,371.67l-.09-6.69c-.42-2.22.22-4.48-.2-6.71l-.08-1a1,1,0,0,1-.06-1.37l0-8.34a.8.8,0,0,1,.66-.27,77,77,0,0,1,20.49,2.58,6.32,6.32,0,0,1,2.47.95.6.6,0,0,1,.17.68c-.17,8.73-.34,17.47-.52,26.69l-4.07-3a8.16,8.16,0,0,1-2.61-1.41c-.24-.16-.47-.35-.7-.53-5-3.9-3.12-3.7-8.49-.52a6,6,0,0,1-1.69.66c-1.82.42-3.13,1.82-5,2.61-.56-1-.12-2-.38-3A1.11,1.11,0,0,1,199,371.67Z" transform="translate(-45.6 -210.36)"/><path class="cls-8" d="M272.91,388.21c-1.65-.24-3.45-.3-3.09-2.76a1.76,1.76,0,0,0,0-1.91c-1.62-3.61-3.57-7-6.69-9.59a18.9,18.9,0,0,0-13.66-4.28c-7.9.42-13.6,4.17-17.5,10.88-.47.8-1,1.68-.57,2.72,1,.8,1.64,1.79,1,3.05a3.06,3.06,0,0,1-3.17,1.91c-1.46-.09-2.94,0-4.4,0-.77,0-1.51,0-1.65,1,.49,2.2,2.06,3,4.1,3q22.78,0,45.57,0c2.27,0,3.81-1.08,4.15-3.49C275.73,387.74,274.27,388.41,272.91,388.21Z" transform="translate(-45.6 -210.36)"/><path class="cls-8" d="M348,379.94c-15.34-1.55-30.69-3.11-46.14-1.95a126,126,0,0,0-25.31,4c.61.63,1.4.38,2.12.38q44.38,0,88.77,0c.86,0,1.8.29,2.58-.36C362.69,381.33,355.35,380.68,348,379.94Z" transform="translate(-45.6 -210.36)"/><path class="cls-8" d="M226.82,382c-1.57-.47-3.12-1-4.71-1.39-11.78-2.71-23.77-3.27-35.77-3-23.4.55-46.68,3.09-70,4.4.69.67,1.56.39,2.34.39q53,0,106.07,0C225.43,382.38,226.22,382.65,226.82,382Z" transform="translate(-45.6 -210.36)"/><path class="cls-9" d="M199.07,347.48c.89-2.05,2.76-1.82,4.49-1.91a74.74,74.74,0,0,1,19.22,3.29c.57.87.63,1.64-.44,2.18a134,134,0,0,0-16.05-2.92,39.51,39.51,0,0,0-5.75-.13C199.92,348,199.37,348.21,199.07,347.48Z" transform="translate(-45.6 -210.36)"/><path class="cls-10" d="M375.55,356.94c-8.05-1.7-16.14-3.21-24.23-4.73a205.08,205.08,0,0,0-28-3.33,96,96,0,0,0-38.46,6.22,55.55,55.55,0,0,0-11,5.19c3.67-1.21,7.23-2.67,10.88-3.9a103.69,103.69,0,0,1,29.84-5.8c10.75-.36,21.34.9,31.93,2.6,14.28,2.3,28.47,5.09,42.69,7.66,2.72.49,5.4,1.37,8.25,1.09C390.13,360.26,382.86,358.48,375.55,356.94Z" transform="translate(-45.6 -210.36)"/><path class="cls-10" d="M273.77,368.5c25-10.53,50.84-10.63,77.08-6.46C324.5,356.61,298.55,355.81,273.77,368.5Z" transform="translate(-45.6 -210.36)"/><path class="cls-10" d="M282.43,373.41c20-6.28,40.35-5.51,60.78-2.84C322.74,366.84,302.37,365.37,282.43,373.41Z" transform="translate(-45.6 -210.36)"/><path class="cls-10" d="M201.39,345.26a210.08,210.08,0,0,0-22.29.78c-7.17.75-14.27,1.78-21.35,3-8.55,1.54-16.93,3.83-25.41,5.67-4.05.88-8,2.05-12,3.08a1.74,1.74,0,0,0,1.39.26c14.13-3.38,28.33-6.42,42.73-8.52a199.07,199.07,0,0,1,34.23-2l.43-.08c1.36-1,3.12-1,4.49-1.91A3.4,3.4,0,0,0,201.39,345.26Z" transform="translate(-45.6 -210.36)"/><path class="cls-10" d="M197.07,363.35a179.84,179.84,0,0,0-25.64.39c-7.17.5-14.31,1.36-21.41,2.51a133.4,133.4,0,0,0-14,2.57c20.9-2.66,41.78-5.58,62.94-3.84C199,362.74,198.32,363.44,197.07,363.35Z" transform="translate(-45.6 -210.36)"/><path class="cls-10" d="M144.6,375.1A359.58,359.58,0,0,1,199,373.05c0-.46,0-.92,0-1.38C180.79,371.29,162.6,371.69,144.6,375.1Z" transform="translate(-45.6 -210.36)"/><path class="cls-10" d="M198.66,357.27l-.06-1.37a6.23,6.23,0,0,0-2.64-.34,221.86,221.86,0,0,0-26.64,1.83c-5.17.61-10.3,1.48-15.45,2.24C168.78,358.15,183.63,356.16,198.66,357.27Z" transform="translate(-45.6 -210.36)"/><path class="cls-10" d="M222.78,348.86a3.26,3.26,0,0,1-.44,2.18l.09.46c8,1.92,14.69,6.3,20.78,11.71C238.14,355.94,231,351.64,222.78,348.86Z" transform="translate(-45.6 -210.36)"/><path class="cls-10" d="M214.45,373.21c-2.87-.66-5.73-1.52-8.72-.71a1.71,1.71,0,0,0-1.38.9l13.49,1.8-2.15-1.74C215.21,373.67,214.86,373.3,214.45,373.21Z" transform="translate(-45.6 -210.36)"/><path class="cls-11" d="M363.19,269.92c-4.59,1.35-11.58,3.51-20,6.51-28.25,10.09-48.48,17.55-65.43,35a98.33,98.33,0,0,0-15.41,20.81,258,258,0,0,0-5.11-43.26c-1.85-9-3.28-15.79-6.64-24.83a148.33,148.33,0,0,0-19.23-35.2c-4.2-5.82-8.56-11.51-13-17.17-1-1.31-2-1.91-3.7-.82-7.37,4.72-14.8,9.33-22.22,14-5.71,3.57-11.44,7.1-17.16,10.65,3.89,3.58,7.77,7.18,11.56,10.86,5.44,5.31,10.83,10.67,16,16.28,3.92,4.29,7.93,8.5,11.74,12.88A348,348,0,0,1,237.91,305c5.2,7.46,10.31,15,14.12,23.31a64.71,64.71,0,0,1,5.61,20.16c.05.54-.2,1.46.6,1.57l0,0v14.36l12-16.52c1,.08,1.34-.93,1.81-1.55q10.53-13.77,22.29-26.5a170.55,170.55,0,0,1,30.55-26.58l0,0c1.68-1.25,3.59-2.13,5.3-3.32a270.38,270.38,0,0,1,36.74-19.74c.22-.1.81-.43,1.64-.85,3-1.5,5.48-2.63,7.36-3.43C373.1,266.84,368.65,268.2,363.19,269.92Z" transform="translate(-45.6 -210.36)"/><path class="cls-11" d="M247.17,344.3a16.08,16.08,0,0,0-2.22-3.62c-.33-.29-.66-.58-1-.88a4.22,4.22,0,0,0-.34-.71A165.46,165.46,0,0,0,223,312.31a186.87,186.87,0,0,0-16.49-15.84c-8.3-6.91-17-13.35-25.84-19.47l-7.16-4.93a1.21,1.21,0,0,1-.09.48,11.21,11.21,0,0,0-6.16-3.8,4,4,0,0,1-.72.85c-3.43,2.28-6.71,4.78-10,7.23a251,251,0,0,0-20.91,18c-6.78,6.28-13.06,13.08-19.42,19.78a2.19,2.19,0,0,0-.84,1.51,2.15,2.15,0,0,0,2,.86,57.73,57.73,0,0,1,6.44.6c8.6.61,17.18,1.42,25.77,2.22,9.62.89,19.22,1.89,28.8,3.11a271.15,271.15,0,0,1,38.12,7.25c8.65,2.41,17.05,5.38,24.24,11a58.15,58.15,0,0,1,4.7,4.45c.52.5,1.2,1.31,1.88.86C248.15,345.93,247.49,345,247.17,344.3Z" transform="translate(-45.6 -210.36)"/><path class="cls-11" d="M253.59,365.71a14.22,14.22,0,0,0-1.19-4.84,9.72,9.72,0,0,1-.78-1.46c-1.64-7.49-6-13.33-11.85-18.16-5.09-4.23-11.19-6.66-17.41-8.82-12.75-4.44-26-6.81-39.26-8.66-7-1-14-1.81-21-2.36-7.24-.56-14.46-1.38-21.69-2.08h0c-2.84-.09-5.63-.75-8.49-.51l0,.05a1.28,1.28,0,0,0-.14-.29c-1.88-.71-3.89-.66-5.84-.94-1-.15-2-.47-2.94.33a1.73,1.73,0,0,1-.54,1.18c-6.23,6.32-12,13-17.93,19.67-5.41,6.08-10.89,12.09-16,18.44,8.48-.95,16.87-2.51,25.23-4.16,14.55-2.88,29-6.11,43.56-9.08A212.11,212.11,0,0,1,187.5,340a121.25,121.25,0,0,1,26,1.28c8.62,1.36,16.76,3.95,23.86,9.26,5.93,4.45,10.79,9.75,13.52,16.77.4,1,1.16.81,1.94.58A2,2,0,0,0,253.59,365.71Z" transform="translate(-45.6 -210.36)"/><path class="cls-11" d="M257.33,356.43c-.16-.65-.35-1.29-.5-1.94a60.37,60.37,0,0,0-5-24.55c-4.95-11.69-12.54-21.74-20-31.84-6.11-8.23-12.5-16.26-19.26-24-5.93-6.76-11.88-13.52-18.37-19.77h0a85.14,85.14,0,0,0-7-6.93,1.51,1.51,0,0,0,.09-.18c-1.65-2.76-4.2-4.56-6.75-6.36,0,0-.13.05-.2.08a2.91,2.91,0,0,1-1.25,1.23c-8.88,4.8-17,10.68-25.16,16.63a7.81,7.81,0,0,0,2.59,2.08c15.4,9.79,30.66,19.78,45.18,30.87a174.33,174.33,0,0,1,26,24.47,159.56,159.56,0,0,1,20.56,29.17c3.45,6.45,6.51,13.07,6.81,20.6,0,.76-.06,1.75,1.19,1.75.84-.46.8-1.33.94-2.11A36,36,0,0,0,257.33,356.43Z" transform="translate(-45.6 -210.36)"/><path class="cls-12" d="M412.43,355.08C405.57,345,398.61,334.94,392,324.69a12.19,12.19,0,0,0-8-5.53q-13.26-3.29-26.74-5.39a135.62,135.62,0,0,0-15.59-2c-7.4-.29-14.84-.51-22.24.74a73.76,73.76,0,0,0-22.54,7.23c-.57.3-3.82,2.62-3.94,2.66a19.45,19.45,0,0,0-1.6,1.54c-4.09,4.83-8.25,9.59-12.19,14.53-4.87,6.08-9.65,12.25-13.92,18.79h0a72.55,72.55,0,0,0-7.52,11.17.68.68,0,0,0,.91.17,24.72,24.72,0,0,1,1.94-2.68A60.86,60.86,0,0,1,280,351.75c10.57-4.88,21.72-7.11,33.25-7.88a42.82,42.82,0,0,1,9.4,0c4.68,0,9.32.54,14,.83,9.42.58,18.56,2.75,27.82,4.26,4.45.72,8.75,2.19,13.28,2.53h0c1.87.76,3.89.79,5.84,1.16,9.94,1.88,19.92,3.5,30,4.6A5.41,5.41,0,0,0,412.43,355.08Z" transform="translate(-45.6 -210.36)"/><path class="cls-13" d="M215.69,373.46c-2.58.55-5-.68-7.54-.68a19.93,19.93,0,0,1-2.42-.28c1.12-1.23,2.75-1.72,4-2.71.82-.63,1.38,0,1.94.48C213.05,371.32,214.37,372.4,215.69,373.46Z" transform="translate(-45.6 -210.36)"/><path class="cls-14" d="M153.86,258.82c36.07,19.88,105.9,73.3,100.08,109.33-2.46-2.93-1.89-11.26-5.8-16C227.87,317.57,138,323.06,115,317.05c44.58,1.39,115.48,7.61,132.19,29.34C223.05,301.38,184.24,283.25,153.86,258.82Z" transform="translate(-45.6 -210.36)"/><path class="cls-4" d="M270.25,347.92c15.6-19.9,32.58-40.93,54.63-54.61-43.1,29.69-73.3,92.46-68.26,71C261.2,314.91,201,263.73,179,239.75c-1.47-.78-5.92-6.31-1.34-2.89,40,38.73,84.95,85.64,81.12,124.28C257.15,368.6,266.14,349.63,270.25,347.92Z" transform="translate(-45.6 -210.36)"/></svg>